<svg xmlns="http://www.w3.org/2000/svg" width="74" height="49" viewBox="0 0 74 49" fill="none">
    <path
        d="M16.624 48.64C13.552 48.64 10.8 47.8933 8.368 46.4C5.97867 44.864 4.08 42.7947 2.672 40.192C1.264 37.5467 0.56 34.5387 0.56 31.168C0.56 27.7973 1.24267 24.8107 2.608 22.208C4.016 19.5627 5.91467 17.4933 8.304 16C10.6933 14.464 13.4027 13.696 16.432 13.696C18.096 13.696 19.696 13.9733 21.232 14.528C22.8107 15.04 24.2187 15.7653 25.456 16.704C26.6933 17.6 27.6533 18.6027 28.336 19.712C29.0613 20.7787 29.424 21.8667 29.424 22.976L27.504 23.104V0.639999H34.096V48H27.504V40H28.784C28.784 41.024 28.4427 42.048 27.76 43.072C27.0773 44.0533 26.16 44.9707 25.008 45.824C23.8987 46.6773 22.5973 47.36 21.104 47.872C19.6533 48.384 18.16 48.64 16.624 48.64ZM17.52 42.944C19.5253 42.944 21.296 42.432 22.832 41.408C24.368 40.384 25.5627 38.9973 26.416 37.248C27.312 35.456 27.76 33.4293 27.76 31.168C27.76 28.9067 27.312 26.9013 26.416 25.152C25.5627 23.36 24.368 21.952 22.832 20.928C21.296 19.904 19.5253 19.392 17.52 19.392C15.5147 19.392 13.744 19.904 12.208 20.928C10.672 21.952 9.456 23.36 8.56 25.152C7.70667 26.9013 7.28 28.9067 7.28 31.168C7.28 33.4293 7.70667 35.456 8.56 37.248C9.456 38.9973 10.672 40.384 12.208 41.408C13.744 42.432 15.5147 42.944 17.52 42.944ZM65.5065 48L54.6265 33.856L53.6665 32.64L39.5225 14.4H47.8425L58.5305 28.352L59.6185 29.76L73.5705 48H65.5065ZM39.5865 48L52.8345 30.72L56.7385 35.392L47.3945 48H39.5865ZM60.0025 31.744L56.3545 27.136L64.6105 14.4H72.4185L60.0025 31.744Z"
        fill="#1D2D3D" />
</svg>